<svg width="375" height="58" viewBox="0 0 375 58" fill="none" xmlns="http://www.w3.org/2000/svg">
<path d="M79.285 31.15V35H61.225V31.955L70.955 22.715C72.0517 21.665 72.7867 20.755 73.16 19.985C73.5567 19.1917 73.755 18.41 73.755 17.64C73.755 16.4967 73.37 15.6217 72.6 15.015C71.83 14.4083 70.6983 14.105 69.205 14.105C66.7083 14.105 64.795 14.9567 63.465 16.66L60.28 14.21C61.2367 12.9267 62.52 11.935 64.13 11.235C65.7633 10.5117 67.5833 10.15 69.59 10.15C72.25 10.15 74.3733 10.78 75.96 12.04C77.5467 13.3 78.34 15.015 78.34 17.185C78.34 18.515 78.06 19.7633 77.5 20.93C76.94 22.0967 75.8667 23.4267 74.28 24.92L67.735 31.15H79.285ZM85.0179 29.435C85.8346 29.435 86.5112 29.7033 87.0479 30.24C87.5846 30.7767 87.8529 31.4767 87.8529 32.34C87.8529 32.7133 87.7946 33.11 87.6779 33.53C87.5846 33.9267 87.3746 34.5333 87.0479 35.35L85.2629 40.285H82.4279L83.8279 34.93C83.3146 34.72 82.9062 34.3933 82.6029 33.95C82.3229 33.4833 82.1829 32.9467 82.1829 32.34C82.1829 31.4767 82.4512 30.7767 82.9879 30.24C83.5246 29.7033 84.2012 29.435 85.0179 29.435ZM108.765 10.5V13.545L99.2451 35H94.3801L103.585 14.35H93.9601V18.515H89.7251V10.5H108.765Z" fill="black"/>
<path d="M123.54 35.14C122.433 35.14 121.44 34.9067 120.56 34.44C119.68 33.9733 118.993 33.3267 118.5 32.5C118.007 31.66 117.76 30.7133 117.76 29.66C117.76 28.6067 118.007 27.6667 118.5 26.84C118.993 26.0133 119.673 25.3667 120.54 24.9C121.42 24.4333 122.42 24.2 123.54 24.2C124.593 24.2 125.513 24.4133 126.3 24.84C127.1 25.2667 127.7 25.88 128.1 26.68L126.18 27.8C125.873 27.3067 125.487 26.94 125.02 26.7C124.567 26.4467 124.067 26.32 123.52 26.32C122.587 26.32 121.813 26.6267 121.2 27.24C120.587 27.84 120.28 28.6467 120.28 29.66C120.28 30.6733 120.58 31.4867 121.18 32.1C121.793 32.7 122.573 33 123.52 33C124.067 33 124.567 32.88 125.02 32.64C125.487 32.3867 125.873 32.0133 126.18 31.52L128.1 32.64C127.687 33.44 127.08 34.06 126.28 34.5C125.493 34.9267 124.58 35.14 123.54 35.14ZM140.145 29.72C140.145 29.8933 140.132 30.14 140.105 30.46H131.725C131.872 31.2467 132.252 31.8733 132.865 32.34C133.492 32.7933 134.265 33.02 135.185 33.02C136.358 33.02 137.325 32.6333 138.085 31.86L139.425 33.4C138.945 33.9733 138.338 34.4067 137.605 34.7C136.872 34.9933 136.045 35.14 135.125 35.14C133.952 35.14 132.918 34.9067 132.025 34.44C131.132 33.9733 130.438 33.3267 129.945 32.5C129.465 31.66 129.225 30.7133 129.225 29.66C129.225 28.62 129.458 27.6867 129.925 26.86C130.405 26.02 131.065 25.3667 131.905 24.9C132.745 24.4333 133.692 24.2 134.745 24.2C135.785 24.2 136.712 24.4333 137.525 24.9C138.352 25.3533 138.992 26 139.445 26.84C139.912 27.6667 140.145 28.6267 140.145 29.72ZM134.745 26.2C133.945 26.2 133.265 26.44 132.705 26.92C132.158 27.3867 131.825 28.0133 131.705 28.8H137.765C137.658 28.0267 137.332 27.4 136.785 26.92C136.238 26.44 135.558 26.2 134.745 26.2ZM147.319 30.72H145.379V35H142.879V24.32H145.379V28.64H147.379L150.539 24.32H153.219L149.339 29.46L153.479 35H150.539L147.319 30.72Z" fill="black"/>
<path d="M63.972 54.072C63.324 54.072 62.744 53.9 62.232 53.556C61.728 53.212 61.332 52.72 61.044 52.08C60.764 51.432 60.624 50.672 60.624 49.8C60.624 48.928 60.764 48.172 61.044 47.532C61.332 46.884 61.728 46.388 62.232 46.044C62.744 45.7 63.324 45.528 63.972 45.528C64.62 45.528 65.196 45.7 65.7 46.044C66.212 46.388 66.612 46.884 66.9 47.532C67.188 48.172 67.332 48.928 67.332 49.8C67.332 50.672 67.188 51.432 66.9 52.08C66.612 52.72 66.212 53.212 65.7 53.556C65.196 53.9 64.62 54.072 63.972 54.072ZM63.972 53.28C64.46 53.28 64.888 53.144 65.256 52.872C65.632 52.6 65.924 52.204 66.132 51.684C66.34 51.164 66.444 50.536 66.444 49.8C66.444 49.064 66.34 48.436 66.132 47.916C65.924 47.396 65.632 47 65.256 46.728C64.888 46.456 64.46 46.32 63.972 46.32C63.484 46.32 63.052 46.456 62.676 46.728C62.308 47 62.02 47.396 61.812 47.916C61.604 48.436 61.5 49.064 61.5 49.8C61.5 50.536 61.604 51.164 61.812 51.684C62.02 52.204 62.308 52.6 62.676 52.872C63.052 53.144 63.484 53.28 63.972 53.28ZM68.7591 50.376H71.9031V51.12H68.7591V50.376ZM75.3739 45.6V54H74.5099V46.368H72.5299V45.6H75.3739ZM80.7298 54.072C80.0818 54.072 79.5018 53.9 78.9898 53.556C78.4858 53.212 78.0898 52.72 77.8018 52.08C77.5218 51.432 77.3818 50.672 77.3818 49.8C77.3818 48.928 77.5218 48.172 77.8018 47.532C78.0898 46.884 78.4858 46.388 78.9898 46.044C79.5018 45.7 80.0818 45.528 80.7298 45.528C81.3778 45.528 81.9538 45.7 82.4578 46.044C82.9698 46.388 83.3698 46.884 83.6578 47.532C83.9458 48.172 84.0898 48.928 84.0898 49.8C84.0898 50.672 83.9458 51.432 83.6578 52.08C83.3698 52.72 82.9698 53.212 82.4578 53.556C81.9538 53.9 81.3778 54.072 80.7298 54.072ZM80.7298 53.28C81.2178 53.28 81.6458 53.144 82.0138 52.872C82.3898 52.6 82.6818 52.204 82.8898 51.684C83.0978 51.164 83.2018 50.536 83.2018 49.8C83.2018 49.064 83.0978 48.436 82.8898 47.916C82.6818 47.396 82.3898 47 82.0138 46.728C81.6458 46.456 81.2178 46.32 80.7298 46.32C80.2418 46.32 79.8098 46.456 79.4338 46.728C79.0658 47 78.7778 47.396 78.5698 47.916C78.3618 48.436 78.2578 49.064 78.2578 49.8C78.2578 50.536 78.3618 51.164 78.5698 51.684C78.7778 52.204 79.0658 52.6 79.4338 52.872C79.8098 53.144 80.2418 53.28 80.7298 53.28ZM88.6751 54.072C88.0271 54.072 87.4471 53.9 86.9351 53.556C86.4311 53.212 86.0351 52.72 85.7471 52.08C85.4671 51.432 85.3271 50.672 85.3271 49.8C85.3271 48.928 85.4671 48.172 85.7471 47.532C86.0351 46.884 86.4311 46.388 86.9351 46.044C87.4471 45.7 88.0271 45.528 88.6751 45.528C89.3231 45.528 89.8991 45.7 90.4031 46.044C90.9151 46.388 91.3151 46.884 91.6031 47.532C91.8911 48.172 92.0351 48.928 92.0351 49.8C92.0351 50.672 91.8911 51.432 91.6031 52.08C91.3151 52.72 90.9151 53.212 90.4031 53.556C89.8991 53.9 89.3231 54.072 88.6751 54.072ZM88.6751 53.28C89.1631 53.28 89.5911 53.144 89.9591 52.872C90.3351 52.6 90.6271 52.204 90.8351 51.684C91.0431 51.164 91.1471 50.536 91.1471 49.8C91.1471 49.064 91.0431 48.436 90.8351 47.916C90.6271 47.396 90.3351 47 89.9591 46.728C89.5911 46.456 89.1631 46.32 88.6751 46.32C88.1871 46.32 87.7551 46.456 87.3791 46.728C87.0111 47 86.7231 47.396 86.5151 47.916C86.3071 48.436 86.2031 49.064 86.2031 49.8C86.2031 50.536 86.3071 51.164 86.5151 51.684C86.7231 52.204 87.0111 52.6 87.3791 52.872C87.7551 53.144 88.1871 53.28 88.6751 53.28ZM99.2931 51.192H97.8531V54H97.0011V47.688H97.8531V50.46H99.3051L101.525 47.688H102.449L99.9651 50.748L102.629 54H101.621L99.2931 51.192ZM111.03 47.688V54H110.25V49.008L107.694 53.232H107.31L104.754 48.996V54H103.974V47.688H104.838L107.514 52.236L110.238 47.688H111.03ZM115.902 43.896H116.682L112.722 55.2H111.942L115.902 43.896ZM121.417 47.688V54H120.565V51.372C119.837 51.692 119.121 51.852 118.417 51.852C117.657 51.852 117.065 51.68 116.641 51.336C116.217 50.984 116.005 50.46 116.005 49.764V47.688H116.857V49.716C116.857 50.188 117.009 50.548 117.313 50.796C117.617 51.036 118.037 51.156 118.573 51.156C119.165 51.156 119.829 51 120.565 50.688V47.688H121.417ZM126.009 47.64C126.833 47.64 127.465 47.848 127.905 48.264C128.345 48.672 128.565 49.28 128.565 50.088V54H127.749V53.016C127.557 53.344 127.273 53.6 126.897 53.784C126.529 53.968 126.089 54.06 125.577 54.06C124.873 54.06 124.313 53.892 123.897 53.556C123.481 53.22 123.273 52.776 123.273 52.224C123.273 51.688 123.465 51.256 123.849 50.928C124.241 50.6 124.861 50.436 125.709 50.436H127.713V50.052C127.713 49.508 127.561 49.096 127.257 48.816C126.953 48.528 126.509 48.384 125.925 48.384C125.525 48.384 125.141 48.452 124.773 48.588C124.405 48.716 124.089 48.896 123.825 49.128L123.441 48.492C123.761 48.22 124.145 48.012 124.593 47.868C125.041 47.716 125.513 47.64 126.009 47.64ZM125.709 53.388C126.189 53.388 126.601 53.28 126.945 53.064C127.289 52.84 127.545 52.52 127.713 52.104V51.072H125.733C124.653 51.072 124.113 51.448 124.113 52.2C124.113 52.568 124.253 52.86 124.533 53.076C124.813 53.284 125.205 53.388 125.709 53.388ZM133.473 54.06C132.849 54.06 132.289 53.924 131.793 53.652C131.305 53.38 130.921 53 130.641 52.512C130.361 52.016 130.221 51.46 130.221 50.844C130.221 50.228 130.361 49.676 130.641 49.188C130.921 48.7 131.305 48.32 131.793 48.048C132.289 47.776 132.849 47.64 133.473 47.64C134.017 47.64 134.501 47.748 134.925 47.964C135.357 48.172 135.697 48.48 135.945 48.888L135.309 49.32C135.101 49.008 134.837 48.776 134.517 48.624C134.197 48.464 133.849 48.384 133.473 48.384C133.017 48.384 132.605 48.488 132.237 48.696C131.877 48.896 131.593 49.184 131.385 49.56C131.185 49.936 131.085 50.364 131.085 50.844C131.085 51.332 131.185 51.764 131.385 52.14C131.593 52.508 131.877 52.796 132.237 53.004C132.605 53.204 133.017 53.304 133.473 53.304C133.849 53.304 134.197 53.228 134.517 53.076C134.837 52.924 135.101 52.692 135.309 52.38L135.945 52.812C135.697 53.22 135.357 53.532 134.925 53.748C134.493 53.956 134.009 54.06 133.473 54.06Z" fill="black"/>
<path d="M33.5254 34.1048C33.5254 39.8876 28.813 44.5754 23 44.5754C17.187 44.5754 12.4746 39.8876 12.4746 34.1048C12.4746 28.322 17.187 23.6341 23 23.6341C28.813 23.6341 33.5254 28.322 33.5254 34.1048Z" fill="#C4C4C4"/>
<path d="M20.6744 35.465C20.0218 34.0604 20.6271 32.397 22.0195 31.7568C23.4089 31.1179 25.0668 31.7408 25.7194 33.1454L39.4804 40.8174L24.223 36.9233C22.8652 37.4464 21.3029 36.8179 20.6744 35.465Z" fill="#030104"/>
<path d="M6.73655 18.7314C11.0808 14.3906 16.8566 12 23 12C29.1435 12 34.9194 14.3906 39.2636 18.7314C43.6077 23.0723 46 28.8437 46 34.9826C46 38.9463 45.0006 42.7557 43.1243 46.1266H38.8255L35.6813 44.3126L37.0699 41.9092L41.1128 44.2418C42.5411 41.463 43.348 38.3153 43.348 34.9826C43.348 34.3928 43.3212 33.8091 43.2717 33.2318L38.4511 34.0811L37.9689 31.3482L42.8462 30.4889C41.9747 26.6438 40.0096 23.2089 37.296 20.5288L33.9915 24.4642L31.864 22.6804L35.1936 18.7154C32.1404 16.4244 28.4238 14.9715 24.3885 14.6986V19.9618H21.6115V14.6986C17.5762 14.9717 13.8596 16.4245 10.8063 18.7155L14.136 22.6804L12.0086 24.4642L8.70396 20.5287C5.99049 23.2089 4.02544 26.6438 3.1539 30.4888L8.03114 31.3483L7.54877 34.081L2.72849 33.2316C2.67905 33.809 2.65224 34.3925 2.65224 34.9823C2.65224 38.3153 3.45879 41.4631 4.88732 44.2417L8.93034 41.9093L10.3188 44.3126L7.17472 46.1264H2.87572C0.999256 42.7555 0 38.9461 0 34.9823C-0.000106812 28.8436 2.3925 23.0721 6.73655 18.7314Z" fill="#030104"/>
<path d="M289.17 18.88C290.78 18.88 292.227 19.195 293.51 19.825C294.793 20.4317 295.797 21.3067 296.52 22.45C297.243 23.5933 297.605 24.9117 297.605 26.405C297.605 27.9917 297.208 29.3917 296.415 30.605C295.622 31.795 294.548 32.7167 293.195 33.37C291.842 34.0233 290.325 34.35 288.645 34.35C285.285 34.35 282.672 33.3 280.805 31.2C278.962 29.1 278.04 26.09 278.04 22.17C278.04 19.4167 278.542 17.0717 279.545 15.135C280.548 13.175 281.948 11.6933 283.745 10.69C285.565 9.66333 287.665 9.15 290.045 9.15C291.305 9.15 292.483 9.29 293.58 9.57C294.7 9.82667 295.668 10.2117 296.485 10.725L294.805 14.155C293.592 13.3617 292.04 12.965 290.15 12.965C287.793 12.965 285.95 13.6883 284.62 15.135C283.29 16.5817 282.625 18.67 282.625 21.4V21.435C283.348 20.595 284.27 19.965 285.39 19.545C286.51 19.1017 287.77 18.88 289.17 18.88ZM288.4 30.78C289.823 30.78 290.978 30.4067 291.865 29.66C292.752 28.89 293.195 27.875 293.195 26.615C293.195 25.3317 292.752 24.3167 291.865 23.57C290.978 22.8233 289.788 22.45 288.295 22.45C286.825 22.45 285.623 22.8467 284.69 23.64C283.78 24.4333 283.325 25.4367 283.325 26.65C283.325 27.84 283.768 28.8317 284.655 29.625C285.565 30.395 286.813 30.78 288.4 30.78ZM310.413 19.615C312.677 19.895 314.403 20.665 315.593 21.925C316.783 23.185 317.378 24.76 317.378 26.65C317.378 28.0733 317.017 29.3683 316.293 30.535C315.57 31.7017 314.473 32.635 313.003 33.335C311.557 34.0117 309.783 34.35 307.683 34.35C305.933 34.35 304.242 34.105 302.608 33.615C300.998 33.1017 299.622 32.4017 298.478 31.515L300.438 27.98C301.325 28.7267 302.398 29.3217 303.658 29.765C304.942 30.185 306.26 30.395 307.613 30.395C309.223 30.395 310.483 30.0683 311.393 29.415C312.327 28.7383 312.793 27.8283 312.793 26.685C312.793 25.5417 312.35 24.655 311.463 24.025C310.6 23.3717 309.27 23.045 307.473 23.045H305.233V19.93L310.798 13.315H299.668V9.5H316.363V12.545L310.413 19.615ZM337.929 30.15V34H319.869V30.955L329.599 21.715C330.695 20.665 331.43 19.755 331.804 18.985C332.2 18.1917 332.399 17.41 332.399 16.64C332.399 15.4967 332.014 14.6217 331.244 14.015C330.474 13.4083 329.342 13.105 327.849 13.105C325.352 13.105 323.439 13.9567 322.109 15.66L318.924 13.21C319.88 11.9267 321.164 10.935 322.774 10.235C324.407 9.51167 326.227 9.15 328.234 9.15C330.894 9.15 333.017 9.78 334.604 11.04C336.19 12.3 336.984 14.015 336.984 16.185C336.984 17.515 336.704 18.7633 336.144 19.93C335.584 21.0967 334.51 22.4267 332.924 23.92L326.379 30.15H337.929Z" fill="black"/>
<path d="M352.12 29.72H350.18V34H347.68V23.32H350.18V27.64H352.18L355.34 23.32H358.02L354.14 28.46L358.28 34H355.34L352.12 29.72ZM370.543 34V26.92L366.943 32.88H365.863L362.323 26.9V34H360.043V23.32H362.663L366.463 30L370.443 23.32H372.783L372.803 34H370.543Z" fill="black"/>
<path d="M280.784 49.712C281.232 49.816 281.576 49.996 281.816 50.252C282.064 50.508 282.188 50.82 282.188 51.188C282.188 51.556 282.06 51.884 281.804 52.172C281.556 52.46 281.216 52.684 280.784 52.844C280.352 52.996 279.876 53.072 279.356 53.072C278.9 53.072 278.452 53.008 278.012 52.88C277.572 52.744 277.188 52.548 276.86 52.292L277.148 51.656C277.436 51.872 277.772 52.04 278.156 52.16C278.54 52.28 278.928 52.34 279.32 52.34C279.904 52.34 280.38 52.232 280.748 52.016C281.124 51.792 281.312 51.492 281.312 51.116C281.312 50.78 281.16 50.52 280.856 50.336C280.552 50.144 280.136 50.048 279.608 50.048H278.528V49.424H279.56C280.032 49.424 280.412 49.336 280.7 49.16C280.988 48.976 281.132 48.732 281.132 48.428C281.132 48.092 280.968 47.828 280.64 47.636C280.32 47.444 279.9 47.348 279.38 47.348C278.7 47.348 278.028 47.52 277.364 47.864L277.124 47.204C277.876 46.812 278.656 46.616 279.464 46.616C279.944 46.616 280.376 46.688 280.76 46.832C281.152 46.968 281.456 47.164 281.672 47.42C281.896 47.676 282.008 47.972 282.008 48.308C282.008 48.628 281.896 48.912 281.672 49.16C281.456 49.408 281.16 49.592 280.784 49.712ZM286.294 46.64C287.118 46.64 287.75 46.848 288.19 47.264C288.63 47.672 288.85 48.28 288.85 49.088V53H288.034V52.016C287.842 52.344 287.558 52.6 287.182 52.784C286.814 52.968 286.374 53.06 285.862 53.06C285.158 53.06 284.598 52.892 284.182 52.556C283.766 52.22 283.558 51.776 283.558 51.224C283.558 50.688 283.75 50.256 284.134 49.928C284.526 49.6 285.146 49.436 285.994 49.436H287.998V49.052C287.998 48.508 287.846 48.096 287.542 47.816C287.238 47.528 286.794 47.384 286.21 47.384C285.81 47.384 285.426 47.452 285.058 47.588C284.69 47.716 284.374 47.896 284.11 48.128L283.726 47.492C284.046 47.22 284.43 47.012 284.878 46.868C285.326 46.716 285.798 46.64 286.294 46.64ZM285.994 52.388C286.474 52.388 286.886 52.28 287.23 52.064C287.574 51.84 287.83 51.52 287.998 51.104V50.072H286.018C284.938 50.072 284.398 50.448 284.398 51.2C284.398 51.568 284.538 51.86 284.818 52.076C285.098 52.284 285.49 52.388 285.994 52.388ZM296.782 46.688V53H295.93V47.444H291.97V53H291.118V46.688H296.782ZM301.376 46.64C302.2 46.64 302.832 46.848 303.272 47.264C303.712 47.672 303.932 48.28 303.932 49.088V53H303.116V52.016C302.924 52.344 302.64 52.6 302.264 52.784C301.896 52.968 301.456 53.06 300.944 53.06C300.24 53.06 299.68 52.892 299.264 52.556C298.848 52.22 298.64 51.776 298.64 51.224C298.64 50.688 298.832 50.256 299.216 49.928C299.608 49.6 300.228 49.436 301.076 49.436H303.08V49.052C303.08 48.508 302.928 48.096 302.624 47.816C302.32 47.528 301.876 47.384 301.292 47.384C300.892 47.384 300.508 47.452 300.14 47.588C299.772 47.716 299.456 47.896 299.192 48.128L298.808 47.492C299.128 47.22 299.512 47.012 299.96 46.868C300.408 46.716 300.88 46.64 301.376 46.64ZM301.076 52.388C301.556 52.388 301.968 52.28 302.312 52.064C302.656 51.84 302.912 51.52 303.08 51.104V50.072H301.1C300.02 50.072 299.48 50.448 299.48 51.2C299.48 51.568 299.62 51.86 299.9 52.076C300.18 52.284 300.572 52.388 301.076 52.388ZM308.84 53.06C308.216 53.06 307.656 52.924 307.16 52.652C306.672 52.38 306.288 52 306.008 51.512C305.728 51.016 305.588 50.46 305.588 49.844C305.588 49.228 305.728 48.676 306.008 48.188C306.288 47.7 306.672 47.32 307.16 47.048C307.656 46.776 308.216 46.64 308.84 46.64C309.384 46.64 309.868 46.748 310.292 46.964C310.724 47.172 311.064 47.48 311.312 47.888L310.676 48.32C310.468 48.008 310.204 47.776 309.884 47.624C309.564 47.464 309.216 47.384 308.84 47.384C308.384 47.384 307.972 47.488 307.604 47.696C307.244 47.896 306.96 48.184 306.752 48.56C306.552 48.936 306.452 49.364 306.452 49.844C306.452 50.332 306.552 50.764 306.752 51.14C306.96 51.508 307.244 51.796 307.604 52.004C307.972 52.204 308.384 52.304 308.84 52.304C309.216 52.304 309.564 52.228 309.884 52.076C310.204 51.924 310.468 51.692 310.676 51.38L311.312 51.812C311.064 52.22 310.724 52.532 310.292 52.748C309.86 52.956 309.376 53.06 308.84 53.06ZM320.051 53L318.047 50.36L316.031 53H315.071L317.567 49.76L315.191 46.688H316.151L318.047 49.16L319.943 46.688H320.879L318.503 49.76L321.023 53H320.051ZM324.8 53.06C324.192 53.06 323.644 52.924 323.156 52.652C322.668 52.372 322.284 51.988 322.004 51.5C321.724 51.012 321.584 50.46 321.584 49.844C321.584 49.228 321.724 48.676 322.004 48.188C322.284 47.7 322.668 47.32 323.156 47.048C323.644 46.776 324.192 46.64 324.8 46.64C325.408 46.64 325.956 46.776 326.444 47.048C326.932 47.32 327.312 47.7 327.584 48.188C327.864 48.676 328.004 49.228 328.004 49.844C328.004 50.46 327.864 51.012 327.584 51.5C327.312 51.988 326.932 52.372 326.444 52.652C325.956 52.924 325.408 53.06 324.8 53.06ZM324.8 52.304C325.248 52.304 325.648 52.204 326 52.004C326.36 51.796 326.64 51.504 326.84 51.128C327.04 50.752 327.14 50.324 327.14 49.844C327.14 49.364 327.04 48.936 326.84 48.56C326.64 48.184 326.36 47.896 326 47.696C325.648 47.488 325.248 47.384 324.8 47.384C324.352 47.384 323.948 47.488 323.588 47.696C323.236 47.896 322.956 48.184 322.748 48.56C322.548 48.936 322.448 49.364 322.448 49.844C322.448 50.324 322.548 50.752 322.748 51.128C322.956 51.504 323.236 51.796 323.588 52.004C323.948 52.204 324.352 52.304 324.8 52.304ZM335.946 52.256V54.524H335.142V53H329.49V54.524H328.686V52.256H329.046C329.47 52.232 329.758 51.92 329.91 51.32C330.062 50.72 330.166 49.88 330.222 48.8L330.306 46.688H334.962V52.256H335.946ZM331.002 48.848C330.962 49.744 330.886 50.484 330.774 51.068C330.662 51.644 330.462 52.04 330.174 52.256H334.11V47.444H331.074L331.002 48.848ZM339.779 46.64C340.603 46.64 341.235 46.848 341.675 47.264C342.115 47.672 342.335 48.28 342.335 49.088V53H341.519V52.016C341.327 52.344 341.043 52.6 340.667 52.784C340.299 52.968 339.859 53.06 339.347 53.06C338.643 53.06 338.083 52.892 337.667 52.556C337.251 52.22 337.043 51.776 337.043 51.224C337.043 50.688 337.235 50.256 337.619 49.928C338.011 49.6 338.631 49.436 339.479 49.436H341.483V49.052C341.483 48.508 341.331 48.096 341.027 47.816C340.723 47.528 340.279 47.384 339.695 47.384C339.295 47.384 338.911 47.452 338.543 47.588C338.175 47.716 337.859 47.896 337.595 48.128L337.211 47.492C337.531 47.22 337.915 47.012 338.363 46.868C338.811 46.716 339.283 46.64 339.779 46.64ZM339.479 52.388C339.959 52.388 340.371 52.28 340.715 52.064C341.059 51.84 341.315 51.52 341.483 51.104V50.072H339.503C338.423 50.072 337.883 50.448 337.883 51.2C337.883 51.568 338.023 51.86 338.303 52.076C338.583 52.284 338.975 52.388 339.479 52.388Z" fill="black"/>
<path fill-rule="evenodd" clip-rule="evenodd" d="M250.311 23.508C251.005 24.439 252.243 25.1217 254.295 24.8469C257.897 24.3644 260.686 25.4456 262.358 27.5167C263.99 29.5368 264.364 32.2642 263.662 34.7102C262.952 37.1819 261.126 39.4474 258.258 40.583C255.394 41.717 251.667 41.6599 247.216 39.8717C243.349 38.3183 241.126 38.5701 239.929 39.2703C238.762 39.9534 238.078 41.3612 238.006 43.3528C237.935 45.3258 238.495 47.5733 239.458 49.3899C240.455 51.2703 241.676 52.3246 242.696 52.5294L242.105 55.4706C239.765 55.0006 237.958 52.9658 236.807 50.795C235.623 48.5604 234.916 45.7947 235.008 43.2447C235.099 40.7132 236.009 38.0882 238.414 36.6809C240.79 35.2906 244.119 35.3945 248.334 37.0879C252.281 38.6736 255.189 38.5716 257.154 37.7937C259.115 37.0173 260.313 35.5041 260.778 33.882C261.252 32.2343 260.954 30.5531 260.024 29.4017C259.136 28.3013 257.473 27.4481 254.693 27.8203C251.706 28.2203 249.332 27.216 247.905 25.3002C246.529 23.4527 246.194 20.9741 246.734 18.6548C247.28 16.3122 248.738 14.0164 251.122 12.4575C253.516 10.891 256.748 10.1294 260.744 10.6767L260.337 13.649C256.943 13.1841 254.463 13.8565 252.764 14.9681C251.053 16.0873 250.034 17.7138 249.656 19.3356C249.273 20.9807 249.567 22.5087 250.311 23.508Z" fill="black"/>
<path fill-rule="evenodd" clip-rule="evenodd" d="M260.513 12.361C260.053 12.298 259.607 12.2542 259.174 12.2284L259.197 11.8291C259.641 11.8555 260.098 11.9004 260.568 11.9647L260.513 12.361ZM256.487 12.3083C255.539 12.4294 254.676 12.6483 253.896 12.9451L253.754 12.5712C254.565 12.2628 255.459 12.0365 256.436 11.9115L256.487 12.3083ZM251.565 14.2222C250.825 14.7793 250.209 15.4236 249.714 16.1187L249.388 15.8868C249.906 15.1589 250.551 14.4848 251.325 13.9026L251.565 14.2222ZM248.538 18.492C248.267 19.3689 248.155 20.2601 248.197 21.1098L247.797 21.1294C247.753 20.2313 247.872 19.2936 248.156 18.374L248.538 18.492ZM248.862 23.6393C249.271 24.4114 249.863 25.0592 250.635 25.5108L250.433 25.856C249.592 25.364 248.949 24.6592 248.508 23.8265L248.862 23.6393ZM254.467 26.1354C255.015 26.062 255.537 26.0289 256.031 26.0327L256.028 26.4327C255.554 26.429 255.051 26.4607 254.52 26.5318C254.028 26.5978 253.561 26.6198 253.119 26.6016L253.135 26.202C253.552 26.2191 253.996 26.1984 254.467 26.1354ZM259.089 26.633C260.128 27.0834 260.944 27.7615 261.535 28.5791L261.21 28.8134C260.661 28.0538 259.903 27.4217 258.93 27.0001L259.089 26.633ZM262.651 31.5C262.773 32.5216 262.666 33.5879 262.334 34.6067L261.954 34.4827C262.268 33.5175 262.369 32.5097 262.254 31.5475L262.651 31.5ZM243.694 37.5255C242.643 37.376 241.732 37.3912 240.949 37.5384L240.875 37.1452C241.708 36.9886 242.664 36.975 243.75 37.1295L243.694 37.5255ZM260.774 37.3109C260.108 38.0526 259.272 38.6904 258.269 39.1628L258.098 38.8008C259.053 38.3514 259.846 37.746 260.476 37.0438L260.774 37.3109ZM247.701 38.6654C247.246 38.4826 246.807 38.3217 246.385 38.1815L246.511 37.8019C246.942 37.9448 247.388 38.1086 247.85 38.2942C248.338 38.4904 248.814 38.6632 249.278 38.8138L249.154 39.1943C248.682 39.0407 248.197 38.8648 247.701 38.6654ZM238.539 38.6826C237.876 39.2772 237.407 40.0545 237.108 40.95L236.728 40.8233C237.045 39.8745 237.549 39.0338 238.272 38.3848L238.539 38.6826ZM255.269 39.9792C254.32 40.08 253.283 40.0628 252.161 39.9044L252.217 39.5084C253.31 39.6625 254.313 39.6785 255.226 39.5814L255.269 39.9792ZM236.7 43.6573C236.697 44.555 236.804 45.4873 237.005 46.4081L236.614 46.4934C236.408 45.5472 236.297 44.5858 236.3 43.6561L236.7 43.6573ZM237.854 49.0486C238.235 49.9309 238.697 50.748 239.22 51.4495L238.899 51.6885C238.356 50.959 237.879 50.1143 237.487 49.2074L237.854 49.0486ZM241.199 53.3144C241.602 53.5524 242.017 53.719 242.44 53.8039L242.361 54.1961C241.888 54.1012 241.431 53.9163 240.996 53.6588L241.199 53.3144Z" fill="white"/>
<path d="M246.5 54.5C246.5 56.433 244.933 58 243 58C241.067 58 239.5 56.433 239.5 54.5C239.5 52.567 241.067 51 243 51C244.933 51 246.5 52.567 246.5 54.5Z" fill="#C4C4C4"/>
<path d="M244.5 54.5C244.5 55.3284 243.828 56 243 56C242.172 56 241.5 55.3284 241.5 54.5C241.5 53.6716 242.172 53 243 53C243.828 53 244.5 53.6716 244.5 54.5Z" fill="white"/>
<path d="M265.5 11.5C265.5 13.433 263.933 15 262 15C260.067 15 258.5 13.433 258.5 11.5C258.5 9.567 260.067 8 262 8C263.933 8 265.5 9.567 265.5 11.5Z" fill="#C4C4C4"/>
<path d="M263.5 11.5C263.5 12.3284 262.828 13 262 13C261.172 13 260.5 12.3284 260.5 11.5C260.5 10.6716 261.172 10 262 10C262.828 10 263.5 10.6716 263.5 11.5Z" fill="white"/>
</svg>
